<svg xmlns="http://www.w3.org/2000/svg" width="84.364" height="71.899" viewBox="0 0 84.364 71.899"><defs><style>.a{fill:#dd2c2c;}.b{fill:#fff;}</style></defs><g transform="translate(0.003 -0.03)"><path class="a" d="M95.624,33.153c-.262.041-.529.079-.793.127-.3.055-.6.124-.9.178-.242.043-.487.067-.73.106-.317.055-.623.141-.938.178-.234.027-.464.049-.7.1-.423.09-.865.13-1.3.189-.235.033-.306.106-.4.416-.65.2-1.293.4-1.939.594-.479.143-.961.271-1.441.408-.16.047-.317.106-.476.152a.616.616,0,0,0-.5.606c-.045.364-.114.724-.171,1.087-.033.2-.163.269-.4.269,0-.139.007-.266,0-.393-.018-.283-.149-.389-.423-.328-.2.043-.386.113-.578.171l-2.518.75c-.106.031-.2.084-.3.123a.258.258,0,0,0-.173.317c.059.338-.123.643-.131.973a1.578,1.578,0,0,1-.478.592.478.478,0,0,0-.3.439c-.029.326-.123.646-.178.97-.025.152-.016.31-.036.463a16.636,16.636,0,0,0-.266,1.744,5.911,5.911,0,0,1-.173.863c-.036.2-.048.4-.073.6-.04.3-.076.61-.127.913-.039.233-.1.461-.158.74-.156-.149-.289-.3-.44-.417a5,5,0,0,0-.429-.286c.147-.634.283-1.229.423-1.852.417,0,.536-.317.634-.665a7.306,7.306,0,0,0,.211-1.442,2.713,2.713,0,0,1,.1-1.057.256.256,0,0,0-.008-.211,1.3,1.3,0,0,1-.086-.7,4.451,4.451,0,0,0-1.028-2.9,3.677,3.677,0,0,0-1.692-1.215,5.076,5.076,0,0,0-2.076-.229,2.313,2.313,0,0,0-1.331.542,11.162,11.162,0,0,0-1.269,1.209,7.179,7.179,0,0,0-1.063,1.772c-.144.338-.275.682-.423,1.018-.061.14-.162.262-.232.4a10.082,10.082,0,0,0-.924,2.381c-.066.3-.154.59-.24.914-.111-.529-.195-1.039-.33-1.536-.182-.671-.4-1.334-.61-2a8.354,8.354,0,0,0-1.2-2.294,5.989,5.989,0,0,0-1.444-1.417,2.467,2.467,0,0,0-.952-.465A2.435,2.435,0,0,0,63.2,35.97a.375.375,0,0,1-.211.024,1.18,1.18,0,0,0-.719.146,5.825,5.825,0,0,0-2.3,1.7,12.78,12.78,0,0,0-1.48,2.221c-.255.467-.432.977-.655,1.463-.106.227-.231.444-.346.666a10.5,10.5,0,0,0-.852,2.107c-.011.041-.051.075-.106.158a.969.969,0,0,1-.088-.236,12.151,12.151,0,0,0-.24-1.358,8.054,8.054,0,0,0-.3-1.153,11.653,11.653,0,0,0-1.1-2.586,7.383,7.383,0,0,0-1.473-1.776,3.384,3.384,0,0,0-1.212-.748,2.115,2.115,0,0,0-.624-.128,6.538,6.538,0,0,0-1.5.058,3.948,3.948,0,0,0-1.119.456,6.585,6.585,0,0,0-2.093,2.056c-.343.5-.683,1.009-.979,1.539-.231.415-.391.867-.581,1.3a.77.77,0,0,1-.195.309.715.715,0,0,1-.036-.221c.05-.349.117-.695.167-1.044.047-.329.076-.66.116-.989s.082-.682.128-1.021c.051-.389.106-.777.159-1.163.05-.351.106-.7.146-1.057a.484.484,0,0,0-.06-.331.385.385,0,0,0-.429-.086c-.6.192-1.2.376-1.8.56-.529.163-1.065.317-1.6.479-.191.058-.387.106-.573.18a.367.367,0,0,0-.257.317c-.057.493-.124.984-.188,1.488l-.367.1c.007-.106.016-.183.018-.262.01-.371-.171-.523-.546-.442-.231.05-.456.125-.682.191l-1.711.513c-.226.067-.453.135-.68.2-.013-.018-.039-.039-.037-.054.086-.462.183-.923.259-1.387.049-.29.056-.586.1-.878.034-.232.093-.46.142-.69a1.9,1.9,0,0,0,.06-.311c.014-.423-.173-.579-.576-.475-.49.128-.977.266-1.467.4q-1.2.317-2.4.625c-.3.076-.436.281-.487.707-.047.4-.114.793-.176,1.207-.085.012-.151.017-.211.029a.53.53,0,0,0-.469.5c-.117.665-.24,1.329-.348,2-.044.28-.055.567-.085.846-.008.078-.03.154-.057.3-.131-.172-.226-.317-.423-.273-.15.034-.3.049-.454.088-.309.081-.61.2-.923.254a.444.444,0,0,0-.4.423c-.056.3-.15.59-.235.911A.455.455,0,0,1,28.6,43.7a12.488,12.488,0,0,1,.015-1.791,22.423,22.423,0,0,0,.074-2.5c.017-.515-.1-.612-.615-.529-.573.093-1.142.211-1.714.317-.431.077-.864.152-1.3.211-.4.053-.539.187-.541.6,0,.358-.007.718,0,1.076,0,.192-.074.284-.266.306a1.514,1.514,0,0,0-.306.086c-.358.115-.358.115-.363.494v.394c-.031,1.848-.074,3.7-.09,5.545s0,3.707-.005,5.561a.423.423,0,0,1-.008.178,2.356,2.356,0,0,0-.106,1.092c-.008,1.076,0,2.153,0,3.228a4.1,4.1,0,0,1-.031.606.6.6,0,0,1-.058-.164,12.925,12.925,0,0,0-.106-2.03,10.762,10.762,0,0,0-.177-1.656A.257.257,0,0,1,23,54.658c-.026-.583-.037-1.163-.082-1.749a10.584,10.584,0,0,0-.179-1.95.383.383,0,0,1-.007-.071l-.1-1.96a13.908,13.908,0,0,0-.092-1.532,18.063,18.063,0,0,1-.192-2.264,8.756,8.756,0,0,0-.1-1.522c-.135-.622-.1-1.25-.177-1.873s.014-1.269-.112-1.878a14.782,14.782,0,0,0-.162-1.586.106.106,0,0,1,0-.036,33.381,33.381,0,0,1-.086-3.679,10.171,10.171,0,0,1,.277-1.53,10.847,10.847,0,0,1,.7-2.083,11.062,11.062,0,0,1,1.437-2.383,10.871,10.871,0,0,1,2.139-2.049,11.322,11.322,0,0,1,3.4-1.692c.529-.163,1.085-.246,1.627-.367a12.493,12.493,0,0,1,2.059-.186c.592-.032,1.18-.126,1.77-.192a.74.74,0,0,1,.106-.011,9.474,9.474,0,0,0,1.706-.085,15.593,15.593,0,0,0,2.053-.192.333.333,0,0,1,.106-.01,15.82,15.82,0,0,0,1.989-.086c.529-.01,1.057-.1,1.595-.146.179-.016.358-.012.537-.02a2.084,2.084,0,0,0,.952-.106.178.178,0,0,1,.072-.006c.6-.034,1.212-.063,1.817-.106.634-.041,1.26-.094,1.891-.139.154-.011.311,0,.466-.008a1.553,1.553,0,0,0,.392-.022,4.688,4.688,0,0,1,1.139-.093c.381-.019.781-.071,1.174-.1a12.9,12.9,0,0,0,1.562-.1c.417-.079.833-.037,1.239-.106.477-.08.952-.03,1.421-.082a10.565,10.565,0,0,0,1.239-.106c.4-.1.786-.039,1.163-.106.465-.077.935,0,1.387-.078.428-.073.859-.031,1.277-.1a19.383,19.383,0,0,1,2.523-.18c.521-.016,1.039-.1,1.559-.151.012,0,.023-.007.035-.007.559-.04,1.119-.088,1.678-.118.607-.034,1.222,0,1.82-.092.417-.062.836-.024,1.24-.1.453-.086.905-.042,1.348-.093s.888-.014,1.315-.094a10.715,10.715,0,0,1,1.172-.09,4.69,4.69,0,0,1,.81-.094,11.107,11.107,0,0,0,1.81-.106c.846-.052,1.683-.128,2.528-.161.541-.021,1.08-.122,1.619-.187l.071-.006c.465-.027.929-.072,1.395-.079a21.906,21.906,0,0,0,2.5-.176,4.388,4.388,0,0,1,.994.059c.534.054,1.071.093,1.6.192.452.086.89.242,1.333.373a9.822,9.822,0,0,1,2.085.924,11.439,11.439,0,0,1,2.021,1.479A10.257,10.257,0,0,1,93.6,25.606a12.773,12.773,0,0,1,.833,1.532c.258.558.471,1.14.676,1.72a5.9,5.9,0,0,1,.181.833c.071.358.136.719.2,1.079a.717.717,0,0,1,.011.106c.025.594.05,1.19.077,1.784C95.584,32.8,95.6,32.941,95.624,33.153Z" transform="translate(-19.399 -18.335)"/><path class="a" d="M54.82,209.38c-.033-.495-.055-.9-.088-1.312-.015-.176-.05-.35-.077-.529a1.692,1.692,0,0,1-.034-.174c-.027-.634-.048-1.261-.08-1.892a11.045,11.045,0,0,0-.112-1.524,5.2,5.2,0,0,1-.073-1.311,2.367,2.367,0,0,0-.121-.693.269.269,0,0,0-.3-.2c-.178.013-.352.056-.529.066-1.025.055-2.046.146-3.076.123a9.216,9.216,0,0,1-1.3-.168,14.616,14.616,0,0,1-1.454-.317,8.527,8.527,0,0,1-.971-.353,11.005,11.005,0,0,1-3.931-2.681,9.959,9.959,0,0,1-1.824-2.595,14.12,14.12,0,0,1-.625-1.437,9.457,9.457,0,0,1-.487-1.964c-.045-.41-.126-.816-.189-1.224a.879.879,0,0,1-.016-.106l-.078-1.641a2.145,2.145,0,0,0-.082-.812.891.891,0,0,1-.006-.335c.337-.086.65-.15.952-.246.781-.246,1.558-.507,2.336-.761l.035-.01c.167-.058.41-.067.484-.183a2.381,2.381,0,0,0,.211-.7,3.565,3.565,0,0,1,.151-.59c.044.356.116.712.127,1.069.021.74.006,1.48.011,2.221,0,.363.088.469.444.438a6.3,6.3,0,0,0,.938-.2c.573-.143,1.146-.284,1.714-.446.482-.136.952-.3,1.4-.441-.037.441-.093.909-.106,1.375-.012.333.131.411.458.317.182-.051.37-.082.556-.118.708-.136,1.417-.274,2.126-.406.291-.054.585-.09.876-.148a.538.538,0,0,0,.511-.572c.02-.211.067-.423.08-.634s0-.423,0-.634a6.843,6.843,0,0,0,.69-.258c.066-.032.081-.163.13-.271l.675-.146c.749-.165,1.5-.332,2.246-.494.324-.069.651-.116.974-.189a.473.473,0,0,0,.4-.474c.039-.364.078-.729.124-1.091a.374.374,0,0,1,.362-.371c.311-.057.317-.056.376-.374.074-.445.128-.892.2-1.338.017-.113.054-.223.084-.343.044.027.079.039.08.052a6.623,6.623,0,0,0,.273,1.231,13.085,13.085,0,0,0,.9,2.509,5.56,5.56,0,0,0,.619,1,6.17,6.17,0,0,0,1.527,1.586,3.96,3.96,0,0,0,1.315.622,4.107,4.107,0,0,0,1.1.085,3.066,3.066,0,0,0,.761-.155,3.966,3.966,0,0,0,1.314-.694,9.036,9.036,0,0,0,.74-.613,9.549,9.549,0,0,0,1.366-1.728,14.574,14.574,0,0,0,1.14-2.253c.242-.569.537-1.115.787-1.681.211-.486.4-.988.642-1.48a1.976,1.976,0,0,0,.051.459,1.163,1.163,0,0,1,.061.446,1.875,1.875,0,0,0,.114.513,20.67,20.67,0,0,0,.731,2.449,8.677,8.677,0,0,0,1.363,2.4,5.734,5.734,0,0,0,1.181,1.138,3.049,3.049,0,0,0,1.965.634,5.17,5.17,0,0,0,1.134-.1,4.521,4.521,0,0,0,1.512-.785,9.226,9.226,0,0,0,2.18-2.579,15.332,15.332,0,0,0,1-2.087,6.607,6.607,0,0,1,.317-.583c.08.423.164.824.232,1.227a4.92,4.92,0,0,0,.614,1.595,4.531,4.531,0,0,0,1.455,1.551,3.379,3.379,0,0,0,1.5.625,3.212,3.212,0,0,0,1.245-.048c.225-.067.476-.043.705-.1a5.545,5.545,0,0,0,2.181-1.02c.438-.347.878-.7,1.284-1.079a8.883,8.883,0,0,0,.719-.87,1.564,1.564,0,0,1,0,.368,5.349,5.349,0,0,0-.18,1.218c-.025.235-.069.468-.106.7-.055.317-.136.624-.168.939-.051.518.106.634.634.529.423-.086.846-.142,1.263-.22s.81-.164,1.216-.24c.317-.058.629-.106.944-.159a.505.505,0,0,0,.473-.529c.03-.388.074-.775.123-1.163a.277.277,0,0,1,.244-.259.815.815,0,0,0,.452-.252.8.8,0,0,1,.507-.292c.517-.124,1.045-.2,1.566-.312.476-.1.952-.211,1.422-.317.185-.041.374-.061.557-.106.291-.078.337-.181.376-.482a5.162,5.162,0,0,1,.188-1.3,1.4,1.4,0,0,1,.088-.15c.038.074.072.106.073.146a5,5,0,0,0,.478,1.881,2.2,2.2,0,0,0,2.555,1.252,2.147,2.147,0,0,0,.771-.423,3.106,3.106,0,0,0,1.121-1.666,9.091,9.091,0,0,1,.79-1.621,4.385,4.385,0,0,0,.438-1.853,8.335,8.335,0,0,0-.074-1.281,3.473,3.473,0,0,0-1.153-2.152c-.027-.023-.052-.049-.087-.08.014-.135.029-.276.042-.4.031-.026.049-.055.066-.055.387.006.493-.264.56-.568.155-.689.3-1.382.463-2.069.141-.587.356-1.163.441-1.753.072-.492.229-.959.317-1.445.153-.858.416-1.692.623-2.543.1-.4.17-.812.265-1.216.144-.607.3-1.21.446-1.817.115-.493.211-.989.326-1.48.026-.115.064-.227.092-.342.106-.415.2-.829.3-1.258a.606.606,0,0,1,.179.458c.024.641.055,1.281.1,1.92.018.272.085.54.106.811.012.165-.074.348-.027.5a6.141,6.141,0,0,1,.118,1.416c.022.282.067.563.084.846a15.605,15.605,0,0,0,.09,1.639c.129.766.113,1.536.187,2.3.082.854.148,1.708.159,2.565.233.545.014,1.142.2,1.692a.2.2,0,0,1,0,.036l.079,1.677a1.526,1.526,0,0,0,.106.8.172.172,0,0,1,.008.071,18.082,18.082,0,0,0,.106,2.064,8.108,8.108,0,0,0,.17,1.692.326.326,0,0,1,.014.106c.026.583.05,1.163.079,1.748a10.627,10.627,0,0,0,.115,1.666,6.06,6.06,0,0,1,.084,1.491c-.018.48-.13.952-.178,1.436a6.6,6.6,0,0,1-.278,1.244c-.15.5-.317.989-.512,1.473a10.178,10.178,0,0,1-.772,1.489,10.8,10.8,0,0,1-1.8,2.191,11.129,11.129,0,0,1-2.581,1.831,10.811,10.811,0,0,1-2.009.818,17.435,17.435,0,0,1-1.812.36,8.95,8.95,0,0,0-.994.09c-.561.162-1.144,0-1.7.176a1.466,1.466,0,0,1-.5.006,1.329,1.329,0,0,0-.7.062,1.071,1.071,0,0,1-.354.029c-.721.056-1.442.119-2.165.168a7.049,7.049,0,0,0-.861.017c-.584.115-1.186.031-1.764.189a.444.444,0,0,1-.106.012c-.608.026-1.216.045-1.823.078a14.108,14.108,0,0,0-1.668.131,10.074,10.074,0,0,1-1.065.084c-.593.041-1.186.093-1.78.139-.119.008-.24-.005-.36.006-.271.024-.541.058-.812.089-.024,0-.048.011-.071.012-.715.031-1.43.055-2.143.093-.235.013-.468.082-.7.087a21.948,21.948,0,0,0-2.234.2.406.406,0,0,1-.071.01,8.256,8.256,0,0,0-1.6.074c-.707.087-1.42.123-2.131.182l-.071.006c-.7.036-1.4.06-2.1.106-.545.038-1.087.106-1.631.161-.036,0-.071.013-.106.014-.7.037-1.4.066-2.1.112-.557.036-1.113.1-1.67.145-.071.006-.142.024-.211.027-.634.029-1.269.04-1.9.085-.591.043-1.179.124-1.768.181a1.637,1.637,0,0,1-.536.013,1.2,1.2,0,0,0-1.1.374q-1.2.987-2.4,1.977l-2.1,1.731c-.686.571-1.366,1.149-2.053,1.718-.349.289-.708.564-1.057.846q-.777.634-1.549,1.269Z" transform="translate(-35.188 -144.647)"/><path class="a" d="M470.82,289.313c.041-.423.077-.8.118-1.223l.752.894Z" transform="translate(-421.038 -257.601)"/><path class="a" d="M394.69,260.471c-.035.583-.039,1.072-.106,1.554a9.412,9.412,0,0,1-.289,1.454,1.1,1.1,0,0,1-.813.731c-.191.052-.375.169-.616.067a1.279,1.279,0,0,1-.675-.642,8.068,8.068,0,0,1-.513-1.472.558.558,0,0,1,.012-.176.7.7,0,0,0,0-.249,5.442,5.442,0,0,1-.106-1.735c-.018-.345-.011-.693,0-1.038a3.167,3.167,0,0,1,.079-.448.485.485,0,0,0,.029-.173c-.087-.4.145-.756.185-1.139.007-.063.069-.123.106-.181a1.242,1.242,0,0,1,1.561-.357,1.693,1.693,0,0,1,.523.751,5.885,5.885,0,0,1,.529,2.226C394.619,259.955,394.667,260.256,394.69,260.471Z" transform="translate(-350.165 -229.369)"/><path class="a" d="M271.885,264.969v-.861a5.01,5.01,0,0,1,.2-1.47,1.013,1.013,0,0,0,.015-.211,1.105,1.105,0,0,1,2.056-.544,4.512,4.512,0,0,1,.581,1.48c.079.38.091.774.178,1.15a4.59,4.59,0,0,1,.08,1.207,10.644,10.644,0,0,1-.1,1.2c-.065.429-.2.846-.259,1.279a1.128,1.128,0,0,1-.735.846,1.037,1.037,0,0,1-.9.024,1,1,0,0,1-.5-.538,6.656,6.656,0,0,1-.52-1.65,6.9,6.9,0,0,1-.1-1.562v-.358Z" transform="translate(-243.138 -233.73)"/><path class="b" d="M382.147,232.2c0-.275.011-.466,0-.657a10.752,10.752,0,0,1,.176-1.729,7.614,7.614,0,0,1,.317-1.453,5.176,5.176,0,0,1,1.217-2.269,2.456,2.456,0,0,1,1.527-.752,1.746,1.746,0,0,1,1.572.74,4.014,4.014,0,0,1,.773,1.548,9.855,9.855,0,0,1,.278,1.209,7.463,7.463,0,0,1,.086,1.065c.014.681.033,1.364-.006,2.043a4.828,4.828,0,0,1-.156,1.269,8.074,8.074,0,0,0-.192.937,5.744,5.744,0,0,1-1.561,2.949,2.085,2.085,0,0,1-1.91.587,1.629,1.629,0,0,1-.971-.634,4.018,4.018,0,0,1-.846-1.863c-.09-.452-.074-.926-.194-1.367A7.642,7.642,0,0,1,382.147,232.2Zm4.113.379c-.023-.211-.071-.52-.085-.828a5.885,5.885,0,0,0-.529-2.226,1.693,1.693,0,0,0-.523-.751,1.242,1.242,0,0,0-1.561.357c-.039.058-.1.117-.106.181-.04.383-.272.735-.185,1.139a.485.485,0,0,1-.029.173,3.162,3.162,0,0,0-.079.448c-.012.346-.019.694,0,1.038a5.54,5.54,0,0,0,.106,1.735.7.7,0,0,1,0,.248.558.558,0,0,0-.012.176,8.068,8.068,0,0,0,.513,1.472,1.279,1.279,0,0,0,.675.642c.241.106.423-.015.616-.067a1.108,1.108,0,0,0,.813-.731,9.412,9.412,0,0,0,.289-1.454C386.221,233.649,386.225,233.161,386.26,232.579Z" transform="translate(-341.735 -201.477)"/><path class="b" d="M268.251,235.688v.753a8.842,8.842,0,0,1-.266,1.935c-.092.415-.189.83-.317,1.235a4.7,4.7,0,0,1-1.615,2.467,1.856,1.856,0,0,1-1.707.379,2.077,2.077,0,0,1-.944-.681,3.49,3.49,0,0,1-.666-1.25,5.274,5.274,0,0,1-.247-1.143c-.037-.362-.126-.717-.187-1.076a1.7,1.7,0,0,1-.017-.284c0-.777-.019-1.554.007-2.326a9.526,9.526,0,0,1,.172-1.15c.031-.187.074-.372.106-.559a6.345,6.345,0,0,1,.889-2.421,2.871,2.871,0,0,1,1.659-1.387,1.593,1.593,0,0,1,1.48.228,3.374,3.374,0,0,1,1.083,1.473,8.759,8.759,0,0,1,.492,2.212c.066.529.076,1.067.112,1.6Zm-4.957,1.288h0v.358a6.842,6.842,0,0,0,.1,1.562,6.657,6.657,0,0,0,.52,1.65,1.017,1.017,0,0,0,.5.538,1.037,1.037,0,0,0,.9-.024,1.142,1.142,0,0,0,.735-.846c.06-.43.195-.846.259-1.279a10.659,10.659,0,0,0,.1-1.2,4.59,4.59,0,0,0-.08-1.206c-.087-.376-.1-.771-.178-1.15a4.512,4.512,0,0,0-.581-1.48,1.106,1.106,0,0,0-2.056.544,1.01,1.01,0,0,1-.015.211,5.01,5.01,0,0,0-.2,1.47C263.295,236.4,263.294,236.689,263.294,236.976Z" transform="translate(-234.547 -205.737)"/><path class="b" d="M17.11,61.814c-.688-.26-1.34-.485-1.972-.753-.46-.195-.9-.441-1.342-.674-.557-.294-1.108-.6-1.664-.9-.747-.4-1.48-.81-2.244-1.181A14.049,14.049,0,0,1,7.2,56.625c-.435-.351-.846-.733-1.247-1.123A13.145,13.145,0,0,1,3.9,52.849a15.2,15.2,0,0,1-.773-1.562,15.811,15.811,0,0,1-.772-2.362,4.4,4.4,0,0,1-.106-.587c-.052-.386-.106-.772-.142-1.163-.058-.614-.106-1.23-.158-1.844,0-.036-.008-.072-.01-.106-.026-.607-.049-1.214-.081-1.821a2.961,2.961,0,0,0-.078-.413,1.248,1.248,0,0,1-.032-.176c-.027-.522-.05-1.046-.076-1.569a14.093,14.093,0,0,0-.117-1.81,9.182,9.182,0,0,1-.067-1.2c-.029-.542-.127-1.081-.186-1.621-.019-.178,0-.358-.013-.538a1.378,1.378,0,0,0-.1-.734c-.026-.043-.008-.116,0-.176a2.489,2.489,0,0,0-.076-1.163.22.22,0,0,1-.012-.07c-.034-.545-.063-1.09-.106-1.634-.017-.236-.056-.469-.08-.7a2.373,2.373,0,0,1,0-.245,2.851,2.851,0,0,0-.09-1.134.317.317,0,0,1-.019-.106c-.033-.607-.06-1.214-.1-1.82s-.09-1.233-.132-1.849c-.012-.154-.008-.311-.015-.466a1.528,1.528,0,0,0-.106-.771.188.188,0,0,1-.011-.071c-.033-.545-.07-1.089-.1-1.634a15.56,15.56,0,0,0-.1-1.782C.181,21.3.2,20.87.15,20.452a31.226,31.226,0,0,1-.125-4.534A6.579,6.579,0,0,1,.25,14.454c.106-.423.211-.846.327-1.269a12.292,12.292,0,0,1,.84-2.078A12.731,12.731,0,0,1,2.974,8.719a13.036,13.036,0,0,1,2.56-2.432A13.43,13.43,0,0,1,8.457,4.655,13.616,13.616,0,0,1,10.489,4a14.651,14.651,0,0,1,2.39-.317,13.788,13.788,0,0,0,1.386-.094,21.123,21.123,0,0,1,2.45-.178c.547-.018,1.091-.106,1.636-.155.013,0,.024-.005.036-.005.634-.04,1.26-.081,1.891-.117a14.963,14.963,0,0,0,1.6-.092c.4-.066.819-.013,1.2-.106.423-.106.835,0,1.238-.072.464-.087.935-.03,1.387-.106.393-.069.792-.018,1.168-.1.464-.1.929.006,1.375-.078s.907-.04,1.352-.1c.816-.112,1.635-.14,2.455-.178.591-.027,1.179-.121,1.769-.184.036,0,.071-.012.106-.014.6-.026,1.193-.05,1.789-.078a12.4,12.4,0,0,0,1.5-.1c.393-.069.8-.007,1.169-.1.59-.145,1.186-.043,1.778-.14.619-.1,1.256-.088,1.884-.132.164-.012.326-.049.489-.075a.438.438,0,0,1,.141-.019,8.506,8.506,0,0,0,1.96-.1c.529-.032,1.069-.053,1.6-.112.3-.034.589-.034.883-.052.558-.036,1.123-.034,1.674-.117A20.609,20.609,0,0,1,51.179.905C51.75.885,52.318.8,52.887.748h.036c.652-.039,1.3-.08,1.958-.116A13.653,13.653,0,0,0,56.413.539c.393-.068.794-.017,1.163-.106A9.712,9.712,0,0,1,58.816.36c.476-.053.958-.039,1.423-.106.393-.06.789-.02,1.169-.093A16.727,16.727,0,0,1,63.577.055C64.3.012,65.05.036,65.78.04c.358,0,.717,0,1.074.027a2.961,2.961,0,0,1,.553.117c.5.133,1.012.247,1.5.423.628.218,1.246.467,1.855.733a11.792,11.792,0,0,1,2.363,1.471,13.747,13.747,0,0,1,2.059,1.973c.368.423.76.823,1.139,1.235.458.5.916,1,1.368,1.512Q78.7,8.662,79.7,9.8c.376.423.776.84,1.12,1.293a12.418,12.418,0,0,1,1.8,3.194,18.038,18.038,0,0,1,.634,2.283,14.621,14.621,0,0,1,.188,1.973c.085,1.014,0,2.034.106,3.038.087.836.026,1.671.106,2.5.088.884.033,1.765.06,2.644.029.907,0,1.82.094,2.72.092.871-.029,1.751.1,2.607.146.99.007,1.977.106,2.961.085.825-.018,1.652.077,2.466.106.859.034,1.715.091,2.569a5.661,5.661,0,0,1,.106.911,7.756,7.756,0,0,0-.039.858c.014.584.063,1.163.071,1.75q.031,2.564.037,5.131a8.073,8.073,0,0,1-.086,1.385,12.582,12.582,0,0,1-.4,1.467,10.991,10.991,0,0,1-.992,2.289,13.138,13.138,0,0,1-3.736,4.183,11.063,11.063,0,0,1-2.424,1.364c-.317.124-.634.277-.959.38-.566.176-1.136.343-1.713.471-.332.074-.693.02-1.021.106a19.4,19.4,0,0,1-2.065.115c-.859.122-1.717-.015-2.57.073-1,.106-2.009,0-3.005.113-.861.1-1.714.052-2.571.085-.919.036-1.843.013-2.758.093-.7.062-1.406.076-2.115.085A4.031,4.031,0,0,0,56.737,61a2.048,2.048,0,0,1-.536.019c-1.517.034-3.036.066-4.554.106-.609.016-1.218.053-1.827.07-1.111.03-2.23-.026-3.33.1-.969.106-1.93.043-2.893.086-.86.037-1.728,0-2.579.1-.9.106-1.788.041-2.681.08a2.174,2.174,0,0,0-.243.043,2.369,2.369,0,0,1-.383.055c-.514,0-1.029-.034-1.543-.02-.476.013-.952.062-1.425.114a.7.7,0,0,0-.317.159q-1.352,1.028-2.7,2.065c-.538.413-1.07.835-1.611,1.244-1.248.938-2.5,1.862-3.747,2.8-1.057.8-2.1,1.621-3.149,2.425-.587.448-1.184.883-1.78,1.321-.3.223-.449.223-.722-.02-.492-.435-.976-.878-1.461-1.319s-.983-.9-1.48-1.345a.529.529,0,0,1-.187-.4c-.025-.34-.081-.679-.112-1.019s-.048-.687-.07-1.032v-.035c-.033-.653-.063-1.307-.106-1.96a3.788,3.788,0,0,0-.074-.414,1.77,1.77,0,0,1-.04-.245c-.027-.678-.051-1.357-.077-2.036a.963.963,0,0,0,0-.125Zm59.114-47c-.02-.211-.039-.352-.045-.493-.027-.594-.052-1.19-.077-1.784a.718.718,0,0,0-.011-.106c-.067-.36-.132-.72-.2-1.079a5.9,5.9,0,0,0-.181-.834c-.205-.581-.423-1.163-.676-1.72A12.773,12.773,0,0,0,74.2,7.271,10.257,10.257,0,0,0,72.459,5.24a11.439,11.439,0,0,0-2.016-1.471,9.823,9.823,0,0,0-2.085-.924c-.443-.131-.882-.288-1.333-.373-.529-.1-1.057-.139-1.6-.192a4.157,4.157,0,0,0-.994-.059,21.906,21.906,0,0,1-2.5.176c-.465.007-.929.052-1.395.079l-.071.006c-.539.066-1.077.166-1.619.187-.846.033-1.692.106-2.528.161a10.654,10.654,0,0,1-1.81.106,4.69,4.69,0,0,0-.81.094,10.715,10.715,0,0,0-1.172.09c-.423.08-.874.043-1.315.094s-.9.007-1.348.093c-.4.076-.824.038-1.24.1-.6.088-1.213.058-1.82.092-.559.031-1.119.078-1.678.118-.012,0-.023.006-.035.007-.519.053-1.037.135-1.559.151a19.356,19.356,0,0,0-2.523.18c-.423.067-.846.024-1.277.1-.453.078-.922,0-1.387.078-.383.063-.775.015-1.163.106s-.824.053-1.239.106c-.466.053-.944,0-1.421.082-.406.068-.823.025-1.239.106a12.743,12.743,0,0,1-1.562.1c-.392.024-.782.076-1.174.1a4.646,4.646,0,0,0-1.139.093,1.553,1.553,0,0,1-.392.022c-.155,0-.312,0-.466.008-.634.044-1.26.1-1.891.139-.6.04-1.212.07-1.817.106a.178.178,0,0,0-.072.006,2.174,2.174,0,0,1-.952.106c-.179.008-.358,0-.537.02-.529.048-1.057.136-1.595.146a15.82,15.82,0,0,1-1.989.086.333.333,0,0,0-.106.01,15.61,15.61,0,0,1-2.053.192,9.474,9.474,0,0,1-1.706.085.74.74,0,0,0-.106.011c-.59.067-1.178.161-1.77.192a12.493,12.493,0,0,0-2.059.186c-.542.121-1.1.2-1.627.367A11.322,11.322,0,0,0,6.87,8.178a10.871,10.871,0,0,0-2.136,2.049A11.062,11.062,0,0,0,3.292,12.6a10.847,10.847,0,0,0-.7,2.083,10.732,10.732,0,0,0-.277,1.53A33.381,33.381,0,0,0,2.4,19.894a.106.106,0,0,0,0,.036c.161.516.053,1.057.162,1.586.126.608.033,1.257.112,1.878s.041,1.251.177,1.873a8.861,8.861,0,0,1,.1,1.522,18.063,18.063,0,0,0,.192,2.264,13.907,13.907,0,0,1,.092,1.532l.1,1.96a.383.383,0,0,0,.007.071,10.542,10.542,0,0,1,.179,1.95c.045.582.056,1.163.082,1.749a.257.257,0,0,0,.006.071,11.46,11.46,0,0,1,.177,1.656,13.463,13.463,0,0,1,.106,2.03.6.6,0,0,0,.058.164,4.1,4.1,0,0,0,.031-.606q0-1.613,0-3.228a2.342,2.342,0,0,1,.106-1.092.423.423,0,0,0,.008-.178c0-1.854-.011-3.707.005-5.561s.059-3.7.09-5.545v-.394c0-.379,0-.379.363-.494a1.514,1.514,0,0,1,.306-.086.259.259,0,0,0,.266-.306c-.007-.358,0-.718,0-1.076,0-.411.136-.546.541-.6.435-.057.867-.132,1.3-.211.572-.106,1.141-.223,1.714-.317.516-.084.634.014.615.529a22.423,22.423,0,0,1-.074,2.5A12.188,12.188,0,0,0,9.2,25.36a.455.455,0,0,0,.038.111c.085-.317.179-.613.235-.911a.451.451,0,0,1,.4-.423c.317-.055.614-.172.923-.254.149-.039.3-.054.454-.088.194-.042.289.106.423.273.027-.142.049-.218.057-.3.03-.283.04-.57.085-.846.106-.667.231-1.331.348-2a.53.53,0,0,1,.469-.5c.066-.012.132-.017.211-.029.061-.413.129-.809.176-1.207.052-.423.189-.634.487-.707q1.2-.306,2.4-.625c.49-.129.977-.268,1.467-.4.4-.106.59.05.576.475a1.9,1.9,0,0,1-.06.311c-.049.231-.106.459-.142.69-.043.292-.051.588-.1.878-.076.464-.173.925-.259,1.387,0,.015.024.036.037.054.227-.069.454-.137.68-.2l1.707-.506c.226-.067.452-.142.682-.191.374-.081.555.071.546.442,0,.079-.011.159-.018.262l.361-.1c.065-.5.131-1,.188-1.488a.367.367,0,0,1,.257-.317c.186-.072.382-.122.573-.18.529-.16,1.066-.317,1.6-.479.6-.184,1.2-.368,1.8-.56a.385.385,0,0,1,.429.086.484.484,0,0,1,.06.331c-.037.352-.1.7-.146,1.057-.054.387-.106.775-.159,1.163q-.069.509-.128,1.021c-.04.329-.07.66-.116.989-.05.349-.117.695-.167,1.044a.715.715,0,0,0,.036.221.77.77,0,0,0,.195-.309c.189-.437.35-.889.581-1.3.3-.529.634-1.035.979-1.539a6.664,6.664,0,0,1,2.1-2.055,3.948,3.948,0,0,1,1.119-.456,6.538,6.538,0,0,1,1.5-.058,2.115,2.115,0,0,1,.624.128,3.384,3.384,0,0,1,1.212.748A7.383,7.383,0,0,1,35.4,20.788a11.654,11.654,0,0,1,1.1,2.586,8.055,8.055,0,0,1,.3,1.153,12.152,12.152,0,0,1,.24,1.358.97.97,0,0,0,.088.236c.059-.082.1-.116.106-.158a10.5,10.5,0,0,1,.852-2.107c.115-.222.242-.439.346-.666.222-.486.4-1,.655-1.463a12.78,12.78,0,0,1,1.48-2.221,5.855,5.855,0,0,1,2.3-1.7,1.18,1.18,0,0,1,.719-.146.375.375,0,0,0,.211-.024,2.435,2.435,0,0,1,1.425.071,2.512,2.512,0,0,1,.952.465,5.989,5.989,0,0,1,1.452,1.421,8.353,8.353,0,0,1,1.209,2.3c.211.663.428,1.326.61,2,.135.5.219,1.008.33,1.536.086-.324.174-.616.24-.914a10.057,10.057,0,0,1,.924-2.381c.07-.136.17-.259.232-.4.148-.336.279-.68.423-1.018a7.179,7.179,0,0,1,1.063-1.772,10.656,10.656,0,0,1,1.269-1.209,2.313,2.313,0,0,1,1.331-.542,5.076,5.076,0,0,1,2.076.229,3.677,3.677,0,0,1,1.692,1.215,4.451,4.451,0,0,1,1.028,2.9,1.325,1.325,0,0,0,.086.7.256.256,0,0,1,.008.211,2.717,2.717,0,0,0-.1,1.057,7.306,7.306,0,0,1-.211,1.442c-.1.351-.219.662-.634.665-.144.623-.28,1.217-.423,1.852a5,5,0,0,1,.429.285c.151.122.283.268.44.417.06-.279.118-.508.158-.74.051-.3.087-.608.127-.913.025-.2.037-.4.073-.6a5.91,5.91,0,0,0,.173-.863,16.552,16.552,0,0,1,.266-1.744c.02-.153.011-.311.036-.463.055-.324.149-.644.178-.97a.478.478,0,0,1,.3-.439,1.609,1.609,0,0,0,.478-.592c.008-.33.19-.634.131-.973a.258.258,0,0,1,.173-.317c.1-.039.194-.092.3-.123q1.257-.377,2.518-.75c.192-.058.383-.128.578-.171.276-.061.407.044.423.328.008.127,0,.255,0,.393.237,0,.367-.067.4-.269.057-.363.126-.723.171-1.087a.614.614,0,0,1,.5-.606c.16-.05.317-.106.476-.152.48-.137.962-.265,1.441-.408.646-.192,1.289-.394,1.939-.594.093-.309.164-.383.4-.416.435-.059.872-.1,1.3-.189.233-.049.463-.07.7-.1.317-.037.625-.123.938-.178.242-.042.487-.066.73-.106.3-.054.6-.123.9-.178C75.7,14.9,75.962,14.86,76.225,14.819ZM19.632,64.733l.7-.564q.774-.634,1.549-1.269c.351-.284.711-.559,1.057-.846.687-.569,1.367-1.147,2.053-1.718s1.4-1.155,2.1-1.731l2.4-1.977a1.2,1.2,0,0,1,1.1-.374,1.637,1.637,0,0,0,.536-.013c.589-.057,1.177-.137,1.768-.181.634-.044,1.269-.056,1.9-.085.072,0,.143-.021.211-.027.556-.05,1.112-.106,1.67-.145.7-.047,1.4-.075,2.1-.112.036,0,.071-.011.106-.014.544-.055,1.086-.123,1.631-.161.7-.049,1.4-.073,2.1-.106l.071-.006c.711-.059,1.423-.1,2.131-.182a8.256,8.256,0,0,1,1.6-.074.407.407,0,0,0,.071-.01,21.945,21.945,0,0,1,2.234-.2c.235,0,.468-.074.7-.087.714-.038,1.429-.062,2.143-.093.023,0,.047-.01.071-.012.271-.031.541-.064.812-.089.119-.012.24,0,.36-.006.593-.045,1.186-.1,1.78-.139a10.069,10.069,0,0,0,1.065-.084,13.065,13.065,0,0,1,1.668-.131c.607-.033,1.215-.052,1.823-.078a.444.444,0,0,0,.106-.012c.577-.159,1.18-.074,1.764-.189A6.467,6.467,0,0,1,61.877,54c.722-.049,1.443-.112,2.165-.168a1.07,1.07,0,0,0,.354-.029,1.329,1.329,0,0,1,.7-.062,1.466,1.466,0,0,0,.5-.006c.556-.176,1.139-.014,1.7-.176a9.04,9.04,0,0,1,.994-.09,17.435,17.435,0,0,0,1.812-.36,10.811,10.811,0,0,0,2.009-.818,11.129,11.129,0,0,0,2.59-1.829,10.8,10.8,0,0,0,1.8-2.2,10.176,10.176,0,0,0,.772-1.489c.2-.484.362-.973.512-1.473a6.6,6.6,0,0,0,.278-1.244c.048-.48.16-.952.178-1.436a6.06,6.06,0,0,0-.084-1.491,11.023,11.023,0,0,1-.115-1.666c-.03-.583-.053-1.163-.079-1.748a.326.326,0,0,0-.014-.106,7.727,7.727,0,0,1-.17-1.692,19.107,19.107,0,0,1-.106-2.064.172.172,0,0,0-.008-.071,1.5,1.5,0,0,1-.106-.8l-.079-1.677a.2.2,0,0,0,0-.036c-.189-.549.03-1.146-.2-1.692-.011-.858-.076-1.711-.159-2.565-.074-.766-.058-1.536-.187-2.3a15.324,15.324,0,0,1-.09-1.639c-.017-.283-.061-.564-.084-.846a6.127,6.127,0,0,0-.118-1.416c-.047-.148.039-.331.027-.5-.02-.271-.087-.539-.106-.811-.043-.64-.074-1.279-.1-1.92a.606.606,0,0,0-.179-.458c-.106.429-.2.846-.3,1.258-.027.114-.066.226-.092.342-.106.495-.211.991-.326,1.48-.143.607-.3,1.21-.446,1.817-.1.4-.166.813-.265,1.216-.211.846-.469,1.686-.623,2.543-.087.486-.244.952-.317,1.445-.085.593-.3,1.163-.441,1.753-.165.687-.308,1.38-.463,2.069-.068.3-.173.574-.56.568-.017,0-.035.029-.066.055-.014.128-.029.269-.042.4.035.032.059.057.087.08a3.479,3.479,0,0,1,1.153,2.152,8.337,8.337,0,0,1,.074,1.281,4.385,4.385,0,0,1-.438,1.853,9.09,9.09,0,0,0-.79,1.621,3.106,3.106,0,0,1-1.121,1.666,2.148,2.148,0,0,1-.771.423,2.2,2.2,0,0,1-2.561-1.26,5,5,0,0,1-.478-1.881c0-.036-.035-.072-.073-.146a1.408,1.408,0,0,0-.088.15,5.162,5.162,0,0,0-.188,1.3c-.039.3-.086.4-.376.482-.183.049-.372.069-.557.106-.475.106-.952.221-1.422.317-.521.106-1.049.188-1.566.312a.8.8,0,0,0-.506.292.815.815,0,0,1-.452.252.277.277,0,0,0-.244.259c-.049.387-.093.774-.123,1.163a.517.517,0,0,1-.473.529c-.3.051-.634.1-.944.159-.406.076-.81.166-1.216.24s-.846.134-1.263.22c-.522.106-.683-.006-.634-.529.032-.317.113-.626.168-.939.04-.233.084-.466.106-.7a5.349,5.349,0,0,1,.18-1.218,1.32,1.32,0,0,0,0-.368,8.408,8.408,0,0,1-.719.87c-.406.383-.846.732-1.284,1.079a5.545,5.545,0,0,1-2.181,1.02c-.229.056-.48.033-.705.1A3.212,3.212,0,0,1,51.694,43a3.326,3.326,0,0,1-1.5-.625,4.531,4.531,0,0,1-1.448-1.535,4.92,4.92,0,0,1-.618-1.586c-.068-.4-.151-.8-.232-1.227a6.6,6.6,0,0,0-.317.583,15.332,15.332,0,0,1-1,2.088A9.114,9.114,0,0,1,44.4,43.274a4.521,4.521,0,0,1-1.512.785,5.171,5.171,0,0,1-1.134.1,3.088,3.088,0,0,1-1.965-.634,5.734,5.734,0,0,1-1.181-1.138,8.677,8.677,0,0,1-1.363-2.4,20.668,20.668,0,0,1-.731-2.449,1.875,1.875,0,0,1-.114-.513,1.163,1.163,0,0,0-.061-.446,1.976,1.976,0,0,1-.051-.459c-.246.495-.428,1-.642,1.48-.25.567-.545,1.112-.787,1.681a14.574,14.574,0,0,1-1.14,2.253,9.549,9.549,0,0,1-1.368,1.724c-.232.222-.492.415-.74.613a3.966,3.966,0,0,1-1.316.694,3.066,3.066,0,0,1-.761.155,4.107,4.107,0,0,1-1.1-.085,3.96,3.96,0,0,1-1.313-.6A6.2,6.2,0,0,1,25.6,42.44a5.559,5.559,0,0,1-.619-1,13.084,13.084,0,0,1-.9-2.509,6.549,6.549,0,0,1-.273-1.231c0-.013-.036-.024-.08-.052-.03.119-.067.229-.084.343-.068.445-.122.892-.2,1.338-.054.317-.066.317-.376.374a.374.374,0,0,0-.362.371c-.045.363-.085.727-.124,1.091a.471.471,0,0,1-.4.474c-.317.073-.65.121-.974.189-.75.162-1.5.329-2.246.494l-.675.146c-.049.106-.065.239-.13.271a6.844,6.844,0,0,1-.69.258c0,.205.012.423,0,.634s-.06.423-.08.634a.538.538,0,0,1-.511.572c-.291.058-.585.094-.876.148-.71.132-1.418.27-2.126.406-.186.036-.374.068-.556.118-.327.091-.469.013-.458-.317.018-.469.074-.938.106-1.375-.445.141-.919.3-1.4.441-.568.162-1.141.3-1.714.446a6.3,6.3,0,0,1-.938.2c-.356.032-.442-.075-.444-.438,0-.74.011-1.48-.011-2.221-.011-.357-.082-.713-.127-1.069a3.565,3.565,0,0,0-.152.59,2.154,2.154,0,0,1-.211.7c-.074.116-.317.125-.484.183l-.035.01c-.778.255-1.554.515-2.336.761-.3.1-.615.161-.952.246A.891.891,0,0,0,4.177,44a2.145,2.145,0,0,1,.082.812q.04.819.078,1.641a.879.879,0,0,0,.016.106c.063.408.144.814.189,1.224a9.456,9.456,0,0,0,.485,1.964,14.119,14.119,0,0,0,.625,1.437,9.959,9.959,0,0,0,1.824,2.595,11.006,11.006,0,0,0,3.94,2.664,8.528,8.528,0,0,0,.971.353,14.615,14.615,0,0,0,1.454.317,9.217,9.217,0,0,0,1.3.168c1.03.023,2.051-.068,3.076-.123.177-.01.351-.053.529-.066a.269.269,0,0,1,.3.2,2.367,2.367,0,0,1,.121.693,5.2,5.2,0,0,0,.073,1.311,11.045,11.045,0,0,1,.112,1.524c.033.634.053,1.26.08,1.892a1.692,1.692,0,0,0,.034.174c.027.176.062.35.077.529C19.577,63.829,19.6,64.239,19.632,64.733ZM42.812,40.908a6.366,6.366,0,0,0,.634-.082,4.221,4.221,0,0,0,2.211-1.5,9.622,9.622,0,0,0,1.123-1.6,17.605,17.605,0,0,0,1-2.126,14.018,14.018,0,0,0,.505-1.739c.161-.641.324-1.284.423-1.936.1-.634.127-1.269.184-1.909a.693.693,0,0,1,.021-.247A1.33,1.33,0,0,0,49,29.106V27.85a.652.652,0,0,0-.02-.282,1.68,1.68,0,0,1-.094-.7,8.693,8.693,0,0,0-.106-1.128c-.041-.2-.041-.4-.08-.588-.111-.541-.238-1.082-.394-1.611a10.974,10.974,0,0,0-.529-1.468,13.77,13.77,0,0,0-.8-1.424,3.9,3.9,0,0,0-2.141-1.692,1.959,1.959,0,0,0-.88-.086,4.04,4.04,0,0,0-1.974.932,8.543,8.543,0,0,0-1.9,2.432,13.124,13.124,0,0,0-.984,2.326c-.2.591-.367,1.2-.513,1.806-.159.665-.3,1.336-.408,2.009a12.463,12.463,0,0,0-.085,1.245c-.006.106.026.232-.018.317a1.805,1.805,0,0,0-.1.846c-.006.454,0,.908,0,1.362a.566.566,0,0,0,.013.248,2,2,0,0,1,.106.878,5.9,5.9,0,0,0,.082.879c.17.761.368,1.516.557,2.272a8.745,8.745,0,0,0,1.03,2.413,4.49,4.49,0,0,0,1.655,1.692,2.635,2.635,0,0,0,1.393.383ZM31.52,19.4a2.781,2.781,0,0,0-1.363.356,5.6,5.6,0,0,0-2.132,2.024,16.706,16.706,0,0,0-1.033,1.826,7.719,7.719,0,0,0-.509,1.255c-.243.8-.449,1.621-.663,2.432a8.821,8.821,0,0,0-.223,1c-.062.454-.106.908-.187,1.361a8.162,8.162,0,0,0-.106,1.525,18.406,18.406,0,0,0,.06,2.032c.067.55.127,1.1.211,1.651.056.348.132.694.218,1.035.142.564.271,1.132.456,1.681a8.787,8.787,0,0,0,.944,1.912,4.47,4.47,0,0,0,1.644,1.595,2.481,2.481,0,0,0,1.922.273,3.912,3.912,0,0,0,1.5-.809,8.97,8.97,0,0,0,2.009-2.615c.317-.607.571-1.253.839-1.887a6.712,6.712,0,0,0,.217-.71c.135-.465.276-.928.4-1.4.059-.227.089-.463.127-.7a9.763,9.763,0,0,1,.188-1.117,1.48,1.48,0,0,0,.06-.768.256.256,0,0,1,.017-.14,4.765,4.765,0,0,0,.168-1.4,7.648,7.648,0,0,0-.067-2.1c-.063-.284,0-.6-.073-.881s-.006-.572-.106-.867a13.614,13.614,0,0,1-.317-1.562,10.111,10.111,0,0,0-.846-2.3A5.561,5.561,0,0,0,33.356,20.1,2.728,2.728,0,0,0,31.52,19.4ZM5.834,40.1l2.305-.694c.126-.669.244-1.3.361-1.924.03-.163.052-.327.084-.49.085-.434.176-.867.258-1.3.068-.36.121-.721.189-1.08q.127-.678.271-1.351c.059-.279.13-.555.2-.83a.293.293,0,0,1,.353-.231c.174.021.231.152.269.3a.4.4,0,0,1,.008.106c0,.418-.011.837,0,1.255s.073.846.087,1.275c.012.382-.024.765-.014,1.146.021.833.07,1.664.087,2.5.016.74.007,1.48.006,2.221,0,.169-.006.337.169.446.74-.2,1.48-.423,2.228-.6a.5.5,0,0,0,.446-.489c.111-.8.239-1.586.372-2.383.092-.548.206-1.091.3-1.638.031-.176.026-.356.058-.529.118-.647.256-1.29.366-1.939.135-.806.251-1.615.376-2.423.029-.187.054-.375.091-.56.056-.289.13-.573.179-.862a4.66,4.66,0,0,1,.1-.768c.167-.475.119-.98.263-1.455a4.663,4.663,0,0,0,.119-.552c.079-.465.152-.933.228-1.4.044-.27.09-.538.133-.808s.088-.561.139-.846a5.177,5.177,0,0,0,.141-.726c.025-.662.247-1.292.275-1.954a7.554,7.554,0,0,1,.2-1.037c.04-.221.061-.446.106-.666.048-.247.106-.492.164-.74-.2.037-.366.055-.529.1-.634.172-1.274.355-1.914.529-.352.094-.349.086-.375.44a8.014,8.014,0,0,1-.091.812c-.077.441-.19.876-.261,1.318-.113.713-.2,1.43-.3,2.144-.029.2-.055.4-.092.6-.056.3-.132.6-.18.9-.077.49-.134.983-.211,1.473-.039.255-.106.506-.15.759-.043.232-.085.463-.119.7-.073.491-.141.983-.211,1.474-.05.352-.1.7-.154,1.057-.041.256-.1.511-.14.767-.052.317-.1.629-.146.943a3.955,3.955,0,0,1-.08.423c-.049.178-.145.223-.357.211a.264.264,0,0,1-.277-.27c-.035-.388-.075-.777-.1-1.163-.032-.546-.048-1.093-.075-1.64-.029-.591-.017-1.179-.1-1.775-.119-.905-.084-1.829-.123-2.749-.011-.266-.054-.529-.085-.822-.231.043-.354.092-.4.326-.122.611-.284,1.214-.43,1.821-.069.289-.14.577-.205.866-.137.611-.27,1.223-.409,1.834-.173.758-.355,1.515-.529,2.274-.037.18-.127.285-.294.285a.279.279,0,0,1-.293-.3c-.018-.259-.019-.521-.012-.781.031-1-.006-2,.061-3.005.092-1.356-.033-2.719.078-4.079.058-.713.011-1.434.011-2.151v-.409c-.766.19-1.507.239-2.21.446-.008.092-.015.139-.016.186-.037,2.46.024,4.919-.059,7.381-.082,2.432-.047,4.875-.062,7.312a1.208,1.208,0,0,1-.01.211A24.717,24.717,0,0,0,5.834,40.1Zm9.094,1.921a2.181,2.181,0,0,0,.39,0q.89-.159,1.775-.342c.276-.057.306-.117.317-.375a4.418,4.418,0,0,1,.065-.485c.039-.256.093-.51.123-.767.037-.317.049-.634.084-.952.029-.258.071-.514.115-.77.05-.29.118-.577.164-.868.055-.35.091-.7.142-1.057.044-.306.115-.608.143-.915a14.1,14.1,0,0,1,.289-1.893.354.354,0,0,1,.27-.3c.505-.132,1.01-.269,1.518-.382.29-.066.432.093.383.387-.01.058-.043.113-.05.171-.037.353-.07.706-.106,1.057a4.508,4.508,0,0,1-.094.884c-.172.559-.13,1.144-.259,1.707a10.724,10.724,0,0,0-.156,1.122c-.025.22-.035.443-.055.713a26.818,26.818,0,0,0,2.633-.511c.033-.41.061-.775.091-1.14a.718.718,0,0,1,.013-.106c.063-.3.144-.6.188-.9.071-.479.121-.962.176-1.444.069-.6.132-1.2.2-1.8.025-.223.057-.447.094-.669.057-.336.142-.669.176-1.007.026-.269.053-.542.061-.806a7.85,7.85,0,0,0,.2-1.643c-.01-.051.04-.106.055-.168a2.387,2.387,0,0,0,.055-.275c.041-.328.078-.657.115-.986a4.311,4.311,0,0,1,.077-.706,8.728,8.728,0,0,0,.191-1.221c.045-.328.085-.658.13-.987.042-.306.092-.61.133-.917.054-.386.1-.774.153-1.163.042-.3.1-.6.132-.909.037-.351.055-.705.081-1.057a.407.407,0,0,1,.014-.07c.052-.294.106-.587.165-.927l-2.573.74a3.99,3.99,0,0,0-.123.46c-.076.5-.137,1.011-.211,1.515-.035.233-.1.461-.135.693-.051.3-.093.606-.134.909-.062.457-.1.918-.187,1.369-.072.366-.117.74-.177,1.1a8.094,8.094,0,0,1-.189.9.376.376,0,0,1-.227.239,8.933,8.933,0,0,1-1.586.2c-.337-.014-.4-.058-.385-.407.015-.367.061-.732.106-1.1.034-.282.087-.563.13-.846s.086-.539.119-.811c.042-.34.065-.684.115-1.024.075-.509.168-1.016.259-1.564-.584.174-1.137.338-1.692.505-.317.1-.352.141-.383.459-.029.293-.057.587-.106.877-.044.266-.129.529-.173.792-.068.407-.118.818-.172,1.229-.069.516-.133,1.034-.2,1.55-.026.2-.059.4-.093.6-.061.36-.13.718-.186,1.077-.067.432-.1.871-.2,1.3a1.043,1.043,0,0,0-.055.553.184.184,0,0,1,0,.106,4.163,4.163,0,0,0-.211,1.144,5.343,5.343,0,0,1-.076.634c-.086.475-.2.946-.271,1.423-.114.726-.2,1.457-.307,2.185-.031.223-.07.444-.106.666-.051.3-.113.6-.156.9a5.22,5.22,0,0,1-.106.874c-.171.512-.127,1.051-.259,1.564a4.491,4.491,0,0,0-.116.552c-.049.366-.079.729-.119,1.107ZM69.621,17.729l-2.555.753c-.051.331-.1.634-.144.928s-.106.6-.156.9c-.04.264-.055.529-.1.8-.054.336-.134.667-.188,1-.082.513-.153,1.028-.228,1.542a10.89,10.89,0,0,0-.191,1.407.709.709,0,0,1-.689.676c-.384.049-.753.082-1.126.144-.423.07-.547-.019-.547-.45a1.018,1.018,0,0,1,.02-.284,15.108,15.108,0,0,0,.261-1.748,2.445,2.445,0,0,0,.1-.873c-.02-.114.077-.244.1-.37.056-.338.106-.677.147-1.017.02-.165.006-.334.029-.5s.069-.31.106-.481a.6.6,0,0,0-.168-.012c-.536.152-1.07.317-1.608.462a.266.266,0,0,0-.211.244c-.087.5-.2,1-.269,1.5a10.682,10.682,0,0,1-.278,1.673.936.936,0,0,0,0,.25,1.141,1.141,0,0,1,0,.211c-.055.288-.117.574-.176.862a1.984,1.984,0,0,0-.106.588,4.676,4.676,0,0,1-.115.942c-.036.5-.179,1-.255,1.5-.074.481-.121.966-.18,1.449-.026.211-.048.423-.084.634-.087.521-.179,1.04-.272,1.561-.036.211-.082.416-.117.624-.055.335-.106.673-.155,1.008-.042.268-.1.529-.13.8a12.339,12.339,0,0,1-.2,1.475c-.133.511-.147,1.03-.235,1.543-.117.687-.2,1.375-.3,2.07a.209.209,0,0,1-.008.035c-.037.211-.074.423-.114.662.853-.206,1.692-.221,2.458-.494.069-.606.13-1.173.2-1.738.025-.211.058-.423.1-.634.056-.3.141-.6.176-.9a11.5,11.5,0,0,1,.182-1.255c.106-.48.123-.98.188-1.47.024-.186.086-.367.112-.553.063-.444.112-.89.173-1.334a.5.5,0,0,1,.468-.448c.2-.034.39-.09.586-.132a4.856,4.856,0,0,1,.729-.146c.336-.021.465.121.441.452-.019.271-.062.539-.106.807-.052.317-.144.624-.168.94a17.148,17.148,0,0,1-.28,1.968c-.1.5-.127,1.01-.181,1.516a3.481,3.481,0,0,0,0,.366l2.578-.523c.033-.192.058-.332.078-.473.05-.337.106-.676.144-1.014s.054-.659.09-.987c.026-.235.064-.467.106-.7.057-.312.151-.621.18-.935a12.1,12.1,0,0,1,.184-1.4c.106-.484.125-.984.185-1.48.045-.375.094-.75.142-1.125.027-.223.05-.447.08-.67.043-.317.1-.634.136-.952.05-.375.092-.751.137-1.127.027-.223.049-.447.086-.669.055-.336.136-.668.179-1.006.071-.564.115-1.13.181-1.692.016-.139.121-.284.094-.408-.082-.38.121-.717.117-1.087a8.983,8.983,0,0,1,.142-1.163c.011-.082.015-.165.026-.247.054-.35.116-.7.163-1.048C69.593,18.253,69.6,18.028,69.621,17.729ZM52.5,32.186a.692.692,0,0,0-.189,0c-.653.224-1.308.445-1.955.688a.513.513,0,0,0-.247.274,2.07,2.07,0,0,0-.131.549c-.059.542-.134,1.087-.146,1.632a4.971,4.971,0,0,0,.327,2.094,3.825,3.825,0,0,0,1.631,1.958,2.692,2.692,0,0,0,1.287.4,6.037,6.037,0,0,0,1.473-.226,4.177,4.177,0,0,0,1.106-.473c.463-.262.871-.62,1.313-.922a4.889,4.889,0,0,0,1.5-2.087.921.921,0,0,0,.029-.246c.044-.279.092-.558.139-.839a3.5,3.5,0,0,0,.127-.833,5.785,5.785,0,0,1,.122-.941c.036-.509.173-1.01.256-1.516.05-.3.072-.61.118-.915a1.91,1.91,0,0,0-.679-1.909c-.317-.253-.647-.489-.984-.712-.377-.248-.763-.49-1.163-.705-.375-.2-.777-.355-1.157-.551A3.861,3.861,0,0,1,53.6,25.337a2.019,2.019,0,0,1-.258-.873,2.367,2.367,0,0,1,.189-1.006,2.1,2.1,0,0,1,1.934-1.331c.813.006.979.3,1.23.874a1.64,1.64,0,0,1,.1.553c.018.376,0,.755.015,1.181l2.105-.406c0-.271.211-.519.122-.836a.671.671,0,0,1,.036-.278,2.931,2.931,0,0,0,.068-.379,6.776,6.776,0,0,0,0-.718,7.5,7.5,0,0,0-.1-.975,3.993,3.993,0,0,0-.252-.74,2.8,2.8,0,0,0-1.259-1.5,2.567,2.567,0,0,0-.714-.317,4.408,4.408,0,0,0-1.524-.034,2.843,2.843,0,0,0-1.57.924,4.173,4.173,0,0,0-.816,1.1c-.2.423-.472.83-.646,1.269-.2.513-.343,1.057-.5,1.586-.1.326-.131.664-.195,1a14.575,14.575,0,0,0-.174,1.586,6.639,6.639,0,0,0,.078.666,4.1,4.1,0,0,0,.233,1.034,1.117,1.117,0,0,0,.572.7,1.268,1.268,0,0,1,.146.106,10.519,10.519,0,0,0,2.758,1.628,3.278,3.278,0,0,1,.892.519,1.98,1.98,0,0,1,.911,1.79,3.949,3.949,0,0,1-.128.694A2.579,2.579,0,0,1,55.589,34.8a3.746,3.746,0,0,1-1.775.317,1.232,1.232,0,0,1-1.263-1.036,5.393,5.393,0,0,1-.125-.659,1.081,1.081,0,0,1,.045-.455A1.682,1.682,0,0,0,52.5,32.186Zm18.915-15.2a2.355,2.355,0,0,1-.013.7,2.255,2.255,0,0,0-.09.7,2.686,2.686,0,0,1-.016.357c-.049.529-.106,1.057-.15,1.595-.036.462-.052.926-.08,1.388a1.471,1.471,0,0,1-.041.173,3.532,3.532,0,0,0-.07.417c-.038.545-.067,1.089-.106,1.634-.02.308-.045.615-.07.923a.64.64,0,0,1-.024.246,1.335,1.335,0,0,0-.094.663c0,.131-.005.263-.016.393-.02.246-.051.492-.07.74-.008.106.01.211,0,.317-.022.234-.057.467-.081.7-.012.106.023.232-.021.317a1.74,1.74,0,0,0-.1.772,1.2,1.2,0,0,1-.026.355,3.186,3.186,0,0,0-.036.993,5.33,5.33,0,0,0,1.816-.123l3.284-13.958C74.05,16.506,72.761,16.773,71.419,16.986ZM72.709,35.3A10.058,10.058,0,0,0,72.5,34.23a2.992,2.992,0,0,0-.345-.7,1.218,1.218,0,0,0-1.535-.309,2.869,2.869,0,0,0-1.163,1.847c.106.376-.24.767.035,1.138-.079.344.125.615.243.9a1.227,1.227,0,0,0,.634.7,1.2,1.2,0,0,0,1.507-.349,3.53,3.53,0,0,0,.835-2.161ZM49.782,31.713l.87-.33-.752-.894C49.859,30.914,49.823,31.29,49.782,31.713Z" transform="translate(0 0)"/><path d="M363.9,200.08a2.635,2.635,0,0,1-1.393-.383,4.52,4.52,0,0,1-1.655-1.692,8.745,8.745,0,0,1-1.034-2.413c-.189-.756-.387-1.511-.557-2.272a5.9,5.9,0,0,1-.082-.879,2,2,0,0,0-.106-.878.566.566,0,0,1-.013-.248c0-.454-.005-.908,0-1.362a1.759,1.759,0,0,1,.1-.846c.044-.087.012-.211.018-.317a12.467,12.467,0,0,1,.085-1.245c.106-.675.25-1.345.408-2.009.146-.608.309-1.215.513-1.806a13.351,13.351,0,0,1,.984-2.326,8.747,8.747,0,0,1,1.9-2.432,4.04,4.04,0,0,1,1.974-.933,1.959,1.959,0,0,1,.88.086,3.9,3.9,0,0,1,2.145,1.693,13.768,13.768,0,0,1,.8,1.434,10.976,10.976,0,0,1,.529,1.468c.156.529.283,1.07.394,1.611.039.191.039.39.08.588a8.694,8.694,0,0,1,.106,1.128,1.681,1.681,0,0,0,.094.7.652.652,0,0,1,.02.282v1.256a1.31,1.31,0,0,1-.092.665.693.693,0,0,0-.021.247c-.057.634-.084,1.278-.184,1.909-.106.652-.265,1.3-.423,1.936a14.022,14.022,0,0,1-.5,1.735,17.606,17.606,0,0,1-1,2.126,9.623,9.623,0,0,1-1.123,1.6,4.239,4.239,0,0,1-2.211,1.5,6.367,6.367,0,0,1-.634.077Zm-2.4-10.185a7.88,7.88,0,0,0,.106,1.62c.119.441.106.916.193,1.367a4.018,4.018,0,0,0,.846,1.863,1.668,1.668,0,0,0,.971.634,2.09,2.09,0,0,0,1.91-.587,5.744,5.744,0,0,0,1.558-2.953,8,8,0,0,1,.192-.937,4.79,4.79,0,0,0,.156-1.269c.039-.679.02-1.362.006-2.043a7.467,7.467,0,0,0-.086-1.065,9.861,9.861,0,0,0-.278-1.209,4.014,4.014,0,0,0-.773-1.548,1.759,1.759,0,0,0-1.572-.74,2.456,2.456,0,0,0-1.527.752,5.133,5.133,0,0,0-1.217,2.269,7.614,7.614,0,0,0-.317,1.453,11.26,11.26,0,0,0-.176,1.729C361.51,189.429,361.5,189.62,361.5,189.895Z" transform="translate(-321.089 -159.172)"/><path d="M245.587,183.19a2.783,2.783,0,0,1,1.856.711,5.561,5.561,0,0,1,1.518,2.009,10.549,10.549,0,0,1,.846,2.3,13.351,13.351,0,0,0,.317,1.562c.1.3.031.581.106.867s.01.6.073.881a7.607,7.607,0,0,1,.067,2.1,4.645,4.645,0,0,1-.168,1.4.256.256,0,0,0-.017.14,1.481,1.481,0,0,1-.06.768,9.215,9.215,0,0,0-.188,1.117c-.038.233-.068.468-.127.7-.124.468-.264.932-.4,1.4a6.717,6.717,0,0,1-.217.71c-.268.634-.518,1.281-.839,1.887a8.97,8.97,0,0,1-2.009,2.615,3.912,3.912,0,0,1-1.51.807,2.481,2.481,0,0,1-1.922-.273,4.47,4.47,0,0,1-1.644-1.595,8.786,8.786,0,0,1-.944-1.912c-.185-.549-.317-1.118-.456-1.681-.086-.342-.162-.687-.218-1.035-.088-.548-.148-1.1-.211-1.651a18.412,18.412,0,0,1-.06-2.032,8.164,8.164,0,0,1,.106-1.525c.082-.453.125-.907.187-1.361a8.823,8.823,0,0,1,.223-1c.211-.813.423-1.629.663-2.432a7.72,7.72,0,0,1,.5-1.261,16.707,16.707,0,0,1,1.033-1.83,5.6,5.6,0,0,1,2.132-2.024A2.822,2.822,0,0,1,245.587,183.19Zm2.185,10.551h.034c-.036-.534-.047-1.071-.112-1.6a8.76,8.76,0,0,0-.492-2.212,3.374,3.374,0,0,0-1.083-1.474,1.593,1.593,0,0,0-1.48-.228,2.858,2.858,0,0,0-1.659,1.387,6.344,6.344,0,0,0-.894,2.423c-.027.187-.071.372-.106.559a9.532,9.532,0,0,0-.172,1.15c-.026.775-.008,1.552-.007,2.326a1.7,1.7,0,0,0,.017.284c.061.36.15.715.187,1.076a5.275,5.275,0,0,0,.247,1.143,3.49,3.49,0,0,0,.666,1.25,2.076,2.076,0,0,0,.944.681,1.856,1.856,0,0,0,1.707-.379,4.7,4.7,0,0,0,1.615-2.467c.125-.4.222-.821.317-1.235a8.7,8.7,0,0,0,.266-1.935Z" transform="translate(-214.068 -163.79)"/><path d="M55.2,201.114a24.741,24.741,0,0,1,.072-2.589,1.207,1.207,0,0,0,.01-.211c.016-2.437-.02-4.877.062-7.312.084-2.462.022-4.921.059-7.381,0-.048.007-.094.016-.186.7-.211,1.444-.256,2.21-.446v.409c0,.717.048,1.438-.011,2.151-.106,1.361.014,2.724-.078,4.079-.068,1-.031,2-.061,3.005-.007.26-.006.522.012.781a.279.279,0,0,0,.293.3c.167,0,.257-.1.3-.292.172-.759.354-1.516.529-2.274.14-.61.272-1.222.409-1.834.066-.289.136-.577.205-.866.146-.607.309-1.21.43-1.821.047-.234.17-.282.4-.326.031.29.074.555.085.822.039.917,0,1.841.123,2.749.078.6.067,1.184.1,1.775.027.547.043,1.094.075,1.64.022.39.062.779.1,1.163a.264.264,0,0,0,.277.27c.211.013.309-.033.357-.211a3.954,3.954,0,0,0,.08-.423c.051-.317.094-.629.146-.943.043-.256.1-.511.14-.767.056-.351.106-.7.154-1.057.071-.491.139-.983.211-1.474.035-.233.076-.464.119-.7.048-.253.106-.5.15-.759.075-.49.132-.983.211-1.473.048-.3.124-.6.18-.9.037-.2.063-.4.092-.6.106-.715.191-1.432.3-2.144.071-.442.184-.877.261-1.318a8.015,8.015,0,0,0,.091-.812c.026-.354.023-.346.375-.44.634-.169,1.275-.352,1.914-.529.159-.042.324-.06.529-.1-.056.253-.116.5-.164.74-.042.22-.063.445-.106.666a7.554,7.554,0,0,0-.2,1.037c-.027.662-.25,1.292-.275,1.954a5.177,5.177,0,0,1-.141.726c-.051.279-.092.56-.139.846s-.089.538-.133.808c-.076.466-.149.934-.228,1.4a4.664,4.664,0,0,1-.119.552c-.144.475-.1.98-.263,1.455a4.645,4.645,0,0,0-.1.768c-.049.289-.123.573-.179.862-.037.185-.062.373-.091.56-.126.808-.241,1.617-.376,2.423-.106.649-.247,1.292-.366,1.939-.032.174-.027.355-.058.529-.1.547-.211,1.09-.3,1.638-.133.793-.261,1.586-.372,2.383a.492.492,0,0,1-.446.489c-.751.168-1.488.393-2.228.6-.176-.106-.169-.277-.169-.446,0-.74.01-1.48-.006-2.221-.017-.832-.066-1.663-.087-2.5-.011-.382.025-.765.014-1.146-.014-.423-.071-.846-.087-1.275s0-.837,0-1.255a.4.4,0,0,0-.008-.106c-.038-.144-.094-.275-.269-.3a.293.293,0,0,0-.353.231c-.074.275-.145.551-.2.83q-.144.675-.271,1.351c-.069.358-.122.72-.189,1.08-.082.434-.173.867-.258,1.3-.032.163-.054.327-.084.49-.116.628-.235,1.255-.361,1.924Z" transform="translate(-49.366 -161.012)"/><path d="M141.23,207.16c.04-.379.071-.74.117-1.1a4.494,4.494,0,0,1,.116-.552c.132-.513.088-1.052.259-1.564a4.823,4.823,0,0,0,.106-.874c.04-.292.106-.6.156-.9.038-.222.077-.443.106-.666.106-.727.192-1.458.307-2.185.074-.477.185-.952.271-1.423a5.343,5.343,0,0,0,.076-.634,4.163,4.163,0,0,1,.211-1.144.184.184,0,0,0,0-.106,1.043,1.043,0,0,1,.055-.553c.1-.423.13-.864.2-1.3.056-.36.125-.718.186-1.077.034-.2.067-.4.093-.6.07-.516.134-1.034.2-1.55.054-.41.106-.822.172-1.229.044-.266.129-.529.173-.792.049-.29.077-.584.106-.877.031-.317.06-.362.383-.459.553-.167,1.106-.331,1.692-.505-.091.548-.184,1.057-.259,1.564-.051.339-.073.683-.115,1.024-.034.272-.078.54-.119.811s-.1.56-.13.846c-.044.364-.091.729-.106,1.1-.014.349.048.393.385.407a8.9,8.9,0,0,0,1.586-.2.376.376,0,0,0,.227-.239,8.094,8.094,0,0,0,.189-.9c.059-.367.106-.74.177-1.1.088-.452.125-.913.187-1.369.041-.3.084-.607.134-.909.038-.232.106-.46.135-.693.075-.5.136-1.011.211-1.515a3.991,3.991,0,0,1,.123-.46l2.573-.74c-.06.34-.113.634-.165.927,0,.023-.012.047-.014.07-.026.353-.044.707-.081,1.057-.033.3-.09.606-.132.909-.053.387-.1.775-.153,1.163-.041.307-.091.611-.133.917-.045.329-.085.659-.13.987a8.729,8.729,0,0,1-.191,1.221,4.31,4.31,0,0,0-.077.706c-.037.329-.074.658-.115.986a2.384,2.384,0,0,1-.055.275c-.015.058-.064.117-.055.168a7.85,7.85,0,0,1-.2,1.643c-.008.263-.035.537-.061.806-.034.337-.118.67-.176,1.007-.037.222-.069.446-.094.669-.07.6-.133,1.2-.2,1.8-.055.482-.106.965-.176,1.444-.044.3-.125.6-.188.9a.718.718,0,0,0-.013.106c-.03.365-.058.73-.091,1.14a26.819,26.819,0,0,1-2.633.511c.02-.27.03-.493.055-.713a10.723,10.723,0,0,1,.156-1.122c.129-.563.087-1.147.259-1.707a4.507,4.507,0,0,0,.094-.884c.034-.353.067-.706.106-1.057.006-.058.04-.113.05-.171.05-.294-.093-.453-.383-.387-.509.113-1.013.25-1.518.382a.354.354,0,0,0-.27.3,14.1,14.1,0,0,0-.289,1.893c-.027.307-.1.609-.143.915-.051.35-.087.7-.142,1.057-.045.291-.114.578-.164.868-.044.256-.087.512-.115.77-.035.317-.047.634-.084.952-.03.257-.084.511-.123.767a4.418,4.418,0,0,0-.064.485c-.011.258-.04.317-.317.375-.59.123-1.182.235-1.775.342A2.181,2.181,0,0,1,141.23,207.16Z" transform="translate(-126.299 -165.134)"/><path d="M572.538,167.41c-.022.3-.029.529-.057.747-.047.35-.106.7-.163,1.048-.012.082-.016.165-.026.247a8.515,8.515,0,0,0-.142,1.163c0,.389-.2.707-.117,1.087.026.124-.078.27-.094.408-.066.565-.106,1.131-.181,1.692-.042.337-.124.669-.179,1.006-.037.222-.058.446-.086.669-.045.376-.088.752-.137,1.127-.041.317-.093.634-.136.952-.031.223-.053.447-.08.67-.048.375-.1.75-.142,1.125-.06.493-.082.993-.185,1.48a12.091,12.091,0,0,0-.184,1.4c-.029.317-.123.623-.18.935-.041.232-.079.464-.106.7-.036.328-.052.659-.09.987s-.094.677-.144,1.014c-.02.141-.045.28-.078.473l-2.578.523a3.484,3.484,0,0,1,0-.366c.054-.507.083-1.018.181-1.516a17.131,17.131,0,0,0,.28-1.968c.024-.317.116-.626.168-.94.044-.268.088-.536.106-.807.024-.331-.106-.473-.441-.452a4.856,4.856,0,0,0-.729.146c-.2.042-.389.1-.586.132a.5.5,0,0,0-.468.448c-.061.444-.106.89-.173,1.334-.026.186-.088.367-.112.553-.066.49-.081.99-.188,1.47a11.508,11.508,0,0,0-.182,1.255c-.035.3-.12.6-.176.9-.038.211-.071.423-.1.634-.068.566-.129,1.132-.2,1.738-.768.273-1.605.288-2.458.494.04-.235.077-.448.114-.662,0-.012.007-.023.008-.035.1-.69.185-1.383.3-2.07.088-.513.106-1.032.235-1.543a12.348,12.348,0,0,0,.2-1.475c.035-.269.088-.535.13-.8.053-.335.106-.673.155-1.008.035-.211.081-.416.117-.624.093-.52.185-1.039.272-1.561.036-.211.057-.423.083-.634.059-.482.106-.968.18-1.449.076-.5.219-.994.255-1.5a4.674,4.674,0,0,0,.115-.942,1.858,1.858,0,0,1,.106-.588c.058-.288.121-.574.176-.862a1.138,1.138,0,0,0,0-.211.936.936,0,0,1,0-.25,10.684,10.684,0,0,0,.278-1.673c.068-.5.182-1,.269-1.5a.267.267,0,0,1,.211-.244c.538-.148,1.072-.31,1.608-.462a.6.6,0,0,1,.168.012,4.367,4.367,0,0,0-.106.481c-.018.156-.008.334-.029.5-.041.34-.091.679-.147,1.017-.021.126-.118.256-.1.37a2.444,2.444,0,0,1-.1.873,16.527,16.527,0,0,1-.261,1.748,1.019,1.019,0,0,0-.02.284c0,.431.121.52.547.45.373-.061.751-.1,1.126-.144a.719.719,0,0,0,.689-.676,10.891,10.891,0,0,1,.191-1.407c.075-.514.146-1.029.228-1.542.054-.336.134-.667.188-1,.043-.264.058-.529.1-.8.045-.3.106-.6.156-.9s.093-.6.144-.928Z" transform="translate(-502.916 -149.681)"/><path d="M473.975,188.362a1.629,1.629,0,0,1-.034.775,1.08,1.08,0,0,0-.045.455,5.391,5.391,0,0,0,.126.659,1.225,1.225,0,0,0,1.263,1.036,3.852,3.852,0,0,0,1.775-.317,2.558,2.558,0,0,0,1.269-1.646,3.949,3.949,0,0,0,.128-.694,1.98,1.98,0,0,0-.911-1.79,3.279,3.279,0,0,0-.892-.519,10.45,10.45,0,0,1-2.758-1.628,1.268,1.268,0,0,0-.146-.106,1.117,1.117,0,0,1-.572-.7,4.1,4.1,0,0,1-.233-1.034,6.639,6.639,0,0,1-.078-.666,14.583,14.583,0,0,1,.174-1.586c.063-.331.1-.669.195-1,.156-.529.3-1.071.5-1.586.174-.439.442-.846.646-1.269a4.172,4.172,0,0,1,.816-1.1,2.843,2.843,0,0,1,1.57-.924,4.408,4.408,0,0,1,1.524.034,2.45,2.45,0,0,1,.714.317,2.808,2.808,0,0,1,1.259,1.5,3.992,3.992,0,0,1,.252.74,7.491,7.491,0,0,1,.1.975,6.788,6.788,0,0,1,0,.718,2.932,2.932,0,0,1-.068.379.672.672,0,0,0-.036.278c.1.317-.126.566-.122.836l-2.105.406c-.02-.423,0-.8-.015-1.181a1.64,1.64,0,0,0-.1-.553c-.251-.578-.417-.868-1.23-.874A2.1,2.1,0,0,0,475,179.633a2.367,2.367,0,0,0-.189,1.006,2.018,2.018,0,0,0,.258.873,3.861,3.861,0,0,0,1.677,1.565c.38.2.781.349,1.157.551.4.211.784.457,1.163.705.337.223.668.459.984.712a1.91,1.91,0,0,1,.679,1.909c-.047.3-.069.611-.118.915-.082.507-.22,1.008-.256,1.516a5.787,5.787,0,0,0-.122.941,3.484,3.484,0,0,1-.127.833c-.047.278-.094.559-.139.839a.92.92,0,0,1-.029.246,4.889,4.889,0,0,1-1.5,2.087c-.442.3-.846.66-1.313.922a4.176,4.176,0,0,1-1.106.473,6.038,6.038,0,0,1-1.473.226,2.692,2.692,0,0,1-1.284-.393,3.825,3.825,0,0,1-1.631-1.958,4.971,4.971,0,0,1-.327-2.094c.012-.545.087-1.089.146-1.632a2.069,2.069,0,0,1,.131-.549.513.513,0,0,1,.247-.274c.647-.243,1.3-.464,1.955-.688A.692.692,0,0,1,473.975,188.362Z" transform="translate(-421.471 -156.176)"/><path d="M665.945,154.559c1.342-.211,2.631-.48,4-.689l-3.284,13.958a5.336,5.336,0,0,1-1.816.123,3.184,3.184,0,0,1,.036-.993,1.2,1.2,0,0,0,.026-.355,1.739,1.739,0,0,1,.1-.772c.044-.087.01-.211.021-.317.024-.234.059-.467.081-.7.01-.106-.008-.211,0-.317.019-.246.05-.492.07-.74.011-.13.012-.262.016-.393a1.336,1.336,0,0,1,.094-.663.64.64,0,0,0,.024-.246c.024-.308.05-.615.07-.923.035-.545.063-1.089.106-1.634a3.524,3.524,0,0,1,.07-.417,1.469,1.469,0,0,0,.041-.173c.029-.462.044-.926.08-1.388.041-.529.106-1.057.15-1.595.012-.118.012-.238.016-.357a2.256,2.256,0,0,1,.09-.7A2.4,2.4,0,0,0,665.945,154.559Z" transform="translate(-594.526 -137.573)"/><path d="M659.452,314.786a3.509,3.509,0,0,1-.84,2.161,1.2,1.2,0,0,1-1.507.349,1.227,1.227,0,0,1-.634-.7c-.118-.289-.323-.56-.243-.9-.275-.371.07-.761-.035-1.138a2.878,2.878,0,0,1,1.163-1.847,1.213,1.213,0,0,1,1.535.309,2.992,2.992,0,0,1,.345.7A10.061,10.061,0,0,1,659.452,314.786Z" transform="translate(-586.743 -279.487)"/></g></svg>